<?xml version="1.0" encoding="utf-8"?>
<!-- Generator: Adobe Illustrator 16.0.0, SVG Export Plug-In . SVG Version: 6.00 Build 0)  -->
<!DOCTYPE svg PUBLIC "-//W3C//DTD SVG 1.1//EN" "http://www.w3.org/Graphics/SVG/1.1/DTD/svg11.dtd">
<svg version="1.1" id="Layer_1" xmlns="http://www.w3.org/2000/svg" xmlns:xlink="http://www.w3.org/1999/xlink" x="0px" y="0px"
	 width="612px" height="792px" viewBox="0 0 612 792" enable-background="new 0 0 612 792" xml:space="preserve">
<g>
	<g>
		<path fill-rule="evenodd" clip-rule="evenodd" fill="#FDFDFD" d="M246.907,392.36c0-19.04,0-38.08,0-57.12
			c40.68,0,81.36,0.003,122.04-0.023c0.899,0,1.104,0.203,1.103,1.103c-0.026,40.24-0.026,80.48,0,120.72
			c0.001,0.899-0.202,1.103-1.103,1.103c-40.32-0.026-80.64-0.026-120.96,0c-0.899,0-1.104-0.203-1.103-1.103
			c0.03-18.68,0.023-37.36,0.023-56.04c0.346,0.153,0.209,0.479,0.252,0.733c0.281,1.692,0.467,3.405,0.838,5.077
			c4.744,21.373,23.285,36.962,46.141,37.114c7.003,0.047,13.709-1.55,20.064-4.535c2.188-1.028,2.199-1.135,0.797-3.309
			c-0.301-0.466-0.511-0.58-1.034-0.306c-3.486,1.83-7.165,3.126-11.026,3.914c-9.908,2.021-19.529,0.987-28.423-3.749
			c-16.415-8.742-24.686-22.596-24.204-41.267c0.31-12.001,5.224-22.128,14.014-30.266c8.798-8.145,19.281-11.993,31.283-11.636
			c8.981,0.268,17.053,3.179,24.322,8.401c1.927,1.384,1.897,1.377,3.354-0.505c0.426-0.551,0.366-0.828-0.171-1.236
			c-10.859-8.265-23.055-11.487-36.53-9.396c-10.845,1.683-19.997,6.708-27.401,14.823c-5.816,6.374-9.555,13.819-11.331,22.271
			C247.488,388.867,247.462,390.661,246.907,392.36z M294.387,439.743c12.464-0.281,23.331-5.013,31.959-14.69
			c1.485-1.666,1.435-1.634-0.243-3.066c-0.738-0.631-1.123-0.648-1.795,0.115c-9.675,11.014-21.803,15.686-36.339,13.673
			c-8.548-1.185-15.931-5.012-21.928-11.181c-8.846-9.1-12.679-20.073-11.218-32.727c1.138-9.851,5.511-18.15,12.907-24.721
			c8.624-7.66,18.78-10.957,30.294-9.881c7.046,0.658,13.415,3.16,19.146,7.288c1.934,1.393,1.872,1.396,3.418-0.434
			c0.572-0.678,0.48-1.01-0.178-1.508c-9.033-6.83-19.211-9.875-30.464-8.799c-10.667,1.02-19.781,5.488-27.154,13.325
			c-7.425,7.893-11.381,17.31-11.668,28.116c-0.348,13.045,4.263,24.158,13.853,33.071
			C273.123,435.896,282.872,439.521,294.387,439.743z M255.33,397.075c0.226,10.892,4.33,20.481,12.649,28.217
			c13.303,12.368,34.375,13.541,48.841,2.716c1.691-1.266,1.609-1.209,0.423-2.934c-0.711-1.033-1.179-0.868-2.042-0.226
			c-8.225,6.128-17.451,8.336-27.515,6.536c-18.468-3.305-30.98-20.675-28.565-39.372c2.424-18.765,19.674-32.589,38.684-30.434
			c8.709,0.987,16.013,4.704,22.028,11.022c1.632,1.714,1.583,1.71,3.359,0.24c0.712-0.589,0.665-1.036,0.075-1.643
			c-1.393-1.434-2.734-2.923-4.285-4.191c-8.698-7.118-18.626-10.096-29.805-8.764c-8.822,1.051-16.371,4.826-22.579,11.101
			C259.149,376.873,255.486,386.058,255.33,397.075z M267.334,396.652c0.03-3.144,0.563-6.2,1.655-9.148
			c4.047-10.918,13.961-17.557,25.166-17.618c5.51-0.03,10.619,1.648,15.172,4.857c1.75,1.234,1.711,1.165,3.088-0.415
			c0.722-0.827,0.614-1.237-0.231-1.847c-7.996-5.759-16.801-7.491-26.271-4.892c-18.845,5.173-27.771,27.018-18.101,43.988
			c8.845,15.522,28.953,20.035,43.613,9.787c1.818-1.271,1.771-1.236,0.41-3.029c-0.615-0.81-0.999-0.925-1.869-0.28
			c-5.852,4.331-12.397,6.095-19.642,5.064C277.147,421.246,267.328,409.936,267.334,396.652z M293.991,431.218
			c0.597-0.043,1.192-0.099,1.789-0.128c6.762-0.331,12.895-2.464,18.386-6.426c1.719-1.24,1.668-1.219,0.433-2.883
			c-0.656-0.884-1.114-0.982-2.057-0.28c-6.416,4.779-13.674,7.038-21.607,6.017c-13.236-1.704-22.077-9.076-26.492-21.69
			c-0.63-1.799-0.56-1.729-2.415-1.366c-1.248,0.243-1.405,0.67-1.072,1.877C264.938,420.745,278.726,431.151,293.991,431.218z
			 M294.094,362.184c-0.759,0-1.52-0.041-2.275,0.011c-0.791,0.054-1.577,0.189-2.363,0.304c-2.583,0.378-2.546,0.373-2.01,2.976
			c0.149,0.722,0.412,0.759,1.041,0.657c2.355-0.383,4.71-0.58,7.119-0.461c6.085,0.3,11.532,2.307,16.489,5.763
			c1.668,1.163,1.59,1.124,2.936-0.381c0.825-0.923,0.612-1.361-0.289-2.02C308.585,364.536,301.715,362.231,294.094,362.184z
			 M353.928,397.444c0.459-0.063,0.763-0.103,1.065-0.146c2.304-0.331,3.576-1.649,3.516-3.642
			c-0.061-1.973-1.459-3.262-3.749-3.389c-1.234-0.069-2.476-0.032-3.712-0.083c-0.638-0.027-0.934,0.129-0.928,0.853
			c0.029,3.914,0.018,7.828,0.009,11.743c-0.001,0.493,0.044,0.842,0.688,0.845c0.647,0.003,0.693-0.35,0.688-0.841
			c-0.012-1.479-0.017-2.956,0.006-4.435c0.005-0.322-0.201-0.773,0.268-0.937c0.49-0.171,0.703,0.255,0.942,0.563
			c1.249,1.608,2.521,3.2,3.725,4.843c0.541,0.737,1.134,0.98,2.104,0.644C356.999,401.443,355.505,399.497,353.928,397.444z
			 M332.965,396.967c0-2-0.002-3.999,0.001-5.999c0.001-0.428-0.018-0.779-0.616-0.787c-0.611-0.009-0.736,0.279-0.729,0.807
			c0.021,1.32-0.016,2.64,0.017,3.959c0.015,0.605-0.165,0.864-0.81,0.853c-1.72-0.032-3.439-0.034-5.159,0.001
			c-0.673,0.013-0.922-0.214-0.9-0.895c0.039-1.278,0.012-2.559,0.012-3.839c0-0.443,0.063-0.884-0.634-0.885
			c-0.638-0.001-0.698,0.336-0.697,0.836c0.009,3.919,0.008,7.838,0.001,11.757c-0.001,0.49,0.039,0.848,0.687,0.85
			c0.69,0.003,0.645-0.424,0.645-0.876c-0.002-1.6,0.019-3.199-0.011-4.799c-0.012-0.619,0.204-0.844,0.829-0.833
			c1.719,0.029,3.439,0.037,5.158-0.004c0.69-0.017,0.898,0.225,0.882,0.896c-0.038,1.559-0.007,3.119-0.015,4.678
			c-0.004,0.51-0.024,0.951,0.716,0.938c0.706-0.013,0.622-0.465,0.622-0.898C332.967,400.806,332.965,398.887,332.965,396.967z
			 M294.599,389.913c-3.334-0.001-6.143,2.013-6.975,5.004c-0.861,3.096,0.454,6.477,3.116,8.014
			c2.78,1.604,6.847,1.156,9.042-1.021c0.228-0.226,0.815-0.415,0.298-0.928c-0.406-0.402-0.733-0.472-1.19-0.004
			c-0.956,0.978-2.174,1.462-3.522,1.633c-2.708,0.342-5.421-1.222-6.27-3.615c-0.964-2.722,0.014-5.568,2.406-7
			c2.295-1.374,5.274-1.06,7.321,0.836c0.469,0.434,0.823,0.596,1.276,0.083c0.495-0.56-0.139-0.773-0.39-1.019
			C298.298,390.512,296.562,389.909,294.599,389.913z M341.531,389.913c-2.15,4.56-4.14,8.773-6.121,12.99
			c-0.103,0.219-0.386,0.563,0.064,0.665c0.398,0.091,0.904,0.211,1.17-0.306c0.273-0.531,0.526-1.075,0.774-1.62
			c1.122-2.469,1.12-2.47,3.809-2.47c0.719,0,1.443,0.057,2.155-0.016c0.818-0.083,1.232,0.262,1.532,0.987
			c0.426,1.031,0.948,2.022,1.425,3.032c0.273,0.58,0.84,0.553,1.235,0.381c0.504-0.219,0.04-0.615-0.083-0.887
			c-0.773-1.708-1.577-3.401-2.373-5.1C343.973,395.121,342.824,392.671,341.531,389.913z M303.095,396.835
			c0,1.92-0.009,3.84,0.007,5.759c0.003,0.434-0.2,1.002,0.613,1.021c0.877,0.021,0.689-0.582,0.694-1.067
			c0.012-1.439,0.034-2.88-0.009-4.318c-0.021-0.687,0.221-0.896,0.894-0.887c0.956,0.014,1.921-0.027,2.87-0.144
			c2.124-0.259,3.277-1.495,3.279-3.425c0.002-1.947-1.24-3.272-3.392-3.463c-1.352-0.12-2.718-0.049-4.075-0.118
			c-0.686-0.035-0.907,0.207-0.895,0.885C303.118,392.996,303.095,394.916,303.095,396.835z M361.384,396.846
			c0,1.955-0.002,3.91,0.001,5.865c0.001,0.429-0.098,0.881,0.605,0.909c0.767,0.031,0.705-0.445,0.705-0.934
			c-0.001-1.476,0.025-2.953-0.012-4.429c-0.017-0.658,0.178-0.923,0.875-0.91c0.954,0.017,1.918-0.023,2.865-0.141
			c2.177-0.269,3.367-1.555,3.327-3.503c-0.04-1.929-1.312-3.229-3.455-3.404c-1.31-0.107-2.634-0.033-3.946-0.117
			c-0.828-0.054-0.999,0.29-0.98,1.038C361.414,393.095,361.384,394.971,361.384,396.846z M316.969,403.896
			c1.453-0.075,2.634-0.741,3.31-2.113c0.668-1.358,0.373-2.64-0.532-3.806c-0.795-1.024-1.854-1.748-2.873-2.518
			c-0.542-0.409-1.095-0.808-1.478-1.385c-0.43-0.649-0.542-1.337-0.13-2.027c0.441-0.74,1.151-0.957,1.963-0.84
			c0.709,0.102,1.252,0.514,1.673,1.072c0.45,0.597,0.806,0.225,1.188-0.074c0.195-0.152,0.176-0.299,0.081-0.509
			c-0.571-1.254-2.803-2.117-4.297-1.646c-1.604,0.506-2.481,2.026-2.121,3.665c0.23,1.046,0.958,1.729,1.743,2.359
			c1.058,0.85,2.188,1.617,3.063,2.671c0.874,1.052,0.855,2.251-0.011,3.132c-0.87,0.886-2.264,0.976-3.273,0.21
			c-0.453-0.343-0.8-0.782-1.093-1.26c-0.287-0.469-0.578-0.24-0.898-0.055c-0.362,0.209-0.371,0.455-0.165,0.788
			C313.992,402.973,315.168,403.887,316.969,403.896z"/>
		<path fill-rule="evenodd" clip-rule="evenodd" fill="#2A9196" d="M246.907,392.36c0.556-1.699,0.581-3.493,0.946-5.231
			c1.776-8.452,5.515-15.897,11.331-22.271c7.404-8.115,16.556-13.14,27.401-14.823c13.475-2.09,25.67,1.132,36.53,9.396
			c0.537,0.408,0.597,0.685,0.171,1.236c-1.457,1.882-1.428,1.89-3.354,0.505c-7.27-5.222-15.341-8.133-24.322-8.401
			c-12.002-0.357-22.485,3.491-31.283,11.636c-8.791,8.138-13.705,18.265-14.014,30.266c-0.482,18.671,7.789,32.524,24.204,41.267
			c8.894,4.736,18.515,5.771,28.423,3.749c3.861-0.788,7.54-2.084,11.026-3.914c0.523-0.274,0.733-0.16,1.034,0.306
			c1.402,2.174,1.392,2.28-0.797,3.309c-6.354,2.985-13.061,4.582-20.064,4.535c-22.856-0.152-41.397-15.741-46.141-37.114
			c-0.371-1.672-0.557-3.385-0.838-5.077c-0.042-0.254,0.094-0.58-0.252-0.733c0-0.4,0-0.8,0-1.2c0.48-0.68,0.244-1.456,0.216-2.172
			c-0.052-1.355,0.308-2.739-0.216-4.068C246.907,393.16,246.907,392.76,246.907,392.36z"/>
		<path fill-rule="evenodd" clip-rule="evenodd" fill="#36979C" d="M246.907,393.56c0.524,1.329,0.164,2.712,0.216,4.068
			c0.027,0.716,0.264,1.492-0.216,2.172C246.907,397.72,246.907,395.64,246.907,393.56z"/>
		<path fill-rule="evenodd" clip-rule="evenodd" fill="#38A545" d="M294.387,439.743c-11.516-0.223-21.264-3.848-29.41-11.418
			c-9.59-8.913-14.2-20.026-13.853-33.071c0.288-10.806,4.243-20.224,11.668-28.116c7.373-7.837,16.487-12.306,27.154-13.325
			c11.253-1.076,21.431,1.97,30.464,8.799c0.658,0.498,0.75,0.83,0.178,1.508c-1.546,1.829-1.484,1.826-3.418,0.434
			c-5.73-4.128-12.1-6.63-19.146-7.288c-11.514-1.076-21.67,2.221-30.294,9.881c-7.396,6.57-11.77,14.87-12.907,24.721
			c-1.461,12.653,2.372,23.627,11.218,32.727c5.997,6.169,13.38,9.996,21.928,11.181c14.536,2.013,26.664-2.659,36.339-13.673
			c0.672-0.764,1.057-0.746,1.795-0.115c1.678,1.433,1.729,1.4,0.243,3.066C317.718,434.73,306.852,439.462,294.387,439.743z"/>
		<path fill-rule="evenodd" clip-rule="evenodd" fill="#A02083" d="M255.33,397.075c0.156-11.017,3.819-20.203,11.269-27.731
			c6.208-6.275,13.757-10.05,22.579-11.101c11.179-1.332,21.107,1.646,29.805,8.764c1.551,1.268,2.893,2.757,4.285,4.191
			c0.59,0.607,0.637,1.054-0.075,1.643c-1.776,1.47-1.728,1.474-3.359-0.24c-6.016-6.318-13.319-10.035-22.028-11.022
			c-19.01-2.155-36.26,11.669-38.684,30.434c-2.415,18.697,10.097,36.067,28.565,39.372c10.064,1.8,19.291-0.408,27.515-6.536
			c0.863-0.643,1.331-0.808,2.042,0.226c1.187,1.725,1.269,1.668-0.423,2.934c-14.466,10.825-35.539,9.652-48.841-2.716
			C259.66,417.557,255.556,407.967,255.33,397.075z"/>
		<path fill-rule="evenodd" clip-rule="evenodd" fill="#FEAE06" d="M267.334,396.652c-0.007,13.283,9.813,24.594,22.99,26.468
			c7.245,1.03,13.79-0.733,19.642-5.064c0.87-0.645,1.254-0.529,1.869,0.28c1.361,1.793,1.408,1.758-0.41,3.029
			c-14.66,10.248-34.768,5.735-43.613-9.787c-9.67-16.971-0.744-38.815,18.101-43.988c9.47-2.6,18.274-0.868,26.271,4.892
			c0.846,0.61,0.953,1.02,0.231,1.847c-1.377,1.579-1.338,1.649-3.088,0.415c-4.553-3.208-9.662-4.887-15.172-4.857
			c-11.205,0.062-21.119,6.7-25.166,17.618C267.896,390.453,267.364,393.509,267.334,396.652z"/>
		<path fill-rule="evenodd" clip-rule="evenodd" fill="#FE1806" d="M293.991,431.218c-15.266-0.066-29.054-10.473-33.035-24.88
			c-0.333-1.207-0.176-1.634,1.072-1.877c1.855-0.363,1.785-0.433,2.415,1.366c4.415,12.614,13.255,19.986,26.492,21.69
			c7.934,1.021,15.191-1.237,21.607-6.017c0.942-0.702,1.4-0.604,2.057,0.28c1.235,1.664,1.286,1.643-0.433,2.883
			c-5.491,3.962-11.624,6.095-18.386,6.426C295.184,431.119,294.588,431.175,293.991,431.218z"/>
		<path fill-rule="evenodd" clip-rule="evenodd" fill="#FE6507" d="M294.094,362.184c7.621,0.048,14.491,2.352,20.647,6.849
			c0.901,0.658,1.114,1.097,0.289,2.02c-1.346,1.505-1.268,1.544-2.936,0.381c-4.957-3.456-10.404-5.463-16.489-5.763
			c-2.409-0.118-4.764,0.078-7.119,0.461c-0.628,0.103-0.892,0.065-1.041-0.657c-0.537-2.603-0.573-2.598,2.01-2.976
			c0.786-0.115,1.572-0.25,2.363-0.304C292.574,362.143,293.335,362.184,294.094,362.184z"/>
		<path fill-rule="evenodd" clip-rule="evenodd" fill="#36979C" d="M353.928,397.444c1.577,2.053,3.071,3.999,4.622,6.019
			c-0.97,0.337-1.563,0.094-2.104-0.644c-1.203-1.643-2.476-3.234-3.725-4.843c-0.239-0.309-0.452-0.734-0.942-0.563
			c-0.469,0.163-0.263,0.614-0.268,0.937c-0.022,1.479-0.018,2.956-0.006,4.435c0.005,0.491-0.041,0.844-0.688,0.841
			c-0.645-0.003-0.689-0.352-0.688-0.845c0.009-3.915,0.021-7.829-0.009-11.743c-0.006-0.724,0.29-0.88,0.928-0.853
			c1.236,0.052,2.478,0.015,3.712,0.083c2.29,0.127,3.688,1.416,3.749,3.389c0.061,1.992-1.212,3.311-3.516,3.642
			C354.69,397.342,354.387,397.382,353.928,397.444z M351.5,393.771c0,0.559,0.01,1.119-0.004,1.678
			c-0.011,0.45,0.194,0.659,0.641,0.662c1.116,0.009,2.242,0.122,3.338-0.176c1.098-0.299,1.748-1.211,1.647-2.33
			c-0.101-1.128-0.703-1.844-1.856-2.011c-0.473-0.068-0.952-0.111-1.43-0.117C351.497,391.446,351.496,391.452,351.5,393.771z"/>
		<path fill-rule="evenodd" clip-rule="evenodd" fill="#35969C" d="M332.965,396.967c0,1.92,0.002,3.839-0.002,5.759
			c0,0.434,0.084,0.886-0.622,0.898c-0.74,0.013-0.72-0.429-0.716-0.938c0.008-1.559-0.023-3.119,0.015-4.678
			c0.017-0.671-0.191-0.912-0.882-0.896c-1.719,0.041-3.439,0.033-5.158,0.004c-0.625-0.011-0.841,0.214-0.829,0.833
			c0.029,1.6,0.009,3.199,0.011,4.799c0,0.452,0.046,0.879-0.645,0.876c-0.647-0.002-0.688-0.359-0.687-0.85
			c0.007-3.919,0.008-7.838-0.001-11.757c-0.001-0.5,0.06-0.837,0.697-0.836c0.696,0.001,0.634,0.442,0.634,0.885
			c0,1.28,0.027,2.561-0.012,3.839c-0.021,0.681,0.228,0.908,0.9,0.895c1.72-0.035,3.439-0.033,5.159-0.001
			c0.645,0.012,0.824-0.247,0.81-0.853c-0.032-1.319,0.004-2.639-0.017-3.959c-0.008-0.528,0.117-0.815,0.729-0.807
			c0.599,0.008,0.617,0.359,0.616,0.787C332.963,392.968,332.965,394.967,332.965,396.967z"/>
		<path fill-rule="evenodd" clip-rule="evenodd" fill="#636767" d="M294.599,389.913c1.962-0.004,3.699,0.599,5.113,1.984
			c0.251,0.246,0.885,0.459,0.39,1.019c-0.453,0.513-0.807,0.35-1.276-0.083c-2.046-1.896-5.026-2.209-7.321-0.836
			c-2.392,1.432-3.371,4.278-2.406,7c0.849,2.394,3.562,3.957,6.27,3.615c1.348-0.171,2.566-0.655,3.522-1.633
			c0.457-0.468,0.784-0.398,1.19,0.004c0.517,0.513-0.071,0.702-0.298,0.928c-2.196,2.177-6.262,2.624-9.042,1.021
			c-2.662-1.537-3.977-4.918-3.116-8.014C288.457,391.926,291.265,389.912,294.599,389.913z"/>
		<path fill-rule="evenodd" clip-rule="evenodd" fill="#32959A" d="M341.531,389.913c1.293,2.759,2.441,5.208,3.588,7.658
			c0.796,1.698,1.6,3.392,2.373,5.1c0.123,0.271,0.587,0.668,0.083,0.887c-0.396,0.172-0.962,0.199-1.235-0.381
			c-0.477-1.01-0.999-2.001-1.425-3.032c-0.3-0.726-0.714-1.07-1.532-0.987c-0.712,0.072-1.437,0.016-2.155,0.016
			c-2.688,0-2.687,0.001-3.809,2.47c-0.248,0.545-0.501,1.089-0.774,1.62c-0.266,0.517-0.771,0.396-1.17,0.306
			c-0.45-0.103-0.167-0.446-0.064-0.665C337.392,398.686,339.381,394.472,341.531,389.913z M341.53,392.955
			c-0.841,1.792-1.54,3.281-2.31,4.92c1.438,0,2.668-0.01,3.898,0.004c0.516,0.006,0.654-0.215,0.445-0.657
			C342.939,395.891,342.3,394.567,341.53,392.955z"/>
		<path fill-rule="evenodd" clip-rule="evenodd" fill="#646869" d="M303.095,396.835c0-1.919,0.023-3.839-0.012-5.758
			c-0.012-0.679,0.209-0.92,0.895-0.885c1.356,0.069,2.723-0.002,4.075,0.118c2.151,0.191,3.394,1.516,3.392,3.463
			c-0.002,1.93-1.155,3.167-3.279,3.425c-0.949,0.116-1.914,0.157-2.87,0.144c-0.673-0.009-0.914,0.2-0.894,0.887
			c0.043,1.438,0.021,2.879,0.009,4.318c-0.004,0.485,0.184,1.088-0.694,1.067c-0.813-0.019-0.61-0.587-0.613-1.021
			C303.086,400.675,303.095,398.755,303.095,396.835z M304.37,393.747c0,0.558,0.01,1.116-0.003,1.673
			c-0.011,0.426,0.125,0.693,0.599,0.693c1.152,0.002,2.315,0.146,3.45-0.159c1.131-0.303,1.726-1.138,1.661-2.303
			c-0.063-1.146-0.667-1.855-1.8-2.05c-0.546-0.093-1.108-0.12-1.663-0.124C304.369,391.463,304.369,391.471,304.37,393.747z"/>
		<path fill-rule="evenodd" clip-rule="evenodd" fill="#309499" d="M361.384,396.846c0-1.875,0.03-3.751-0.015-5.625
			c-0.019-0.748,0.152-1.091,0.98-1.038c1.313,0.084,2.637,0.01,3.946,0.117c2.144,0.175,3.415,1.475,3.455,3.404
			c0.04,1.948-1.15,3.234-3.327,3.503c-0.947,0.117-1.911,0.157-2.865,0.141c-0.697-0.013-0.892,0.252-0.875,0.91
			c0.037,1.476,0.011,2.953,0.012,4.429c0,0.488,0.062,0.965-0.705,0.934c-0.703-0.028-0.604-0.48-0.605-0.909
			C361.382,400.756,361.384,398.801,361.384,396.846z M362.658,393.751c0,0.559,0.006,1.118-0.002,1.678
			c-0.005,0.352,0.053,0.668,0.482,0.676c1.313,0.022,2.652,0.234,3.914-0.27c1.008-0.403,1.445-1.229,1.331-2.305
			c-0.108-1.022-0.673-1.706-1.692-1.908c-0.582-0.116-1.188-0.144-1.784-0.147C362.657,391.459,362.657,391.469,362.658,393.751z"
			/>
		<path fill-rule="evenodd" clip-rule="evenodd" fill="#35969C" d="M316.969,403.896c-1.801-0.009-2.977-0.923-3.852-2.336
			c-0.206-0.333-0.197-0.579,0.165-0.788c0.32-0.186,0.611-0.414,0.898,0.055c0.293,0.478,0.64,0.917,1.093,1.26
			c1.01,0.766,2.403,0.676,3.273-0.21c0.866-0.881,0.885-2.08,0.011-3.132c-0.875-1.054-2.005-1.821-3.063-2.671
			c-0.785-0.63-1.513-1.313-1.743-2.359c-0.36-1.639,0.518-3.159,2.121-3.665c1.494-0.471,3.726,0.392,4.297,1.646
			c0.095,0.21,0.114,0.357-0.081,0.509c-0.382,0.299-0.737,0.671-1.188,0.074c-0.421-0.558-0.964-0.97-1.673-1.072
			c-0.812-0.117-1.521,0.1-1.963,0.84c-0.412,0.69-0.3,1.378,0.13,2.027c0.383,0.578,0.936,0.976,1.478,1.385
			c1.02,0.77,2.078,1.493,2.873,2.518c0.905,1.166,1.2,2.447,0.532,3.806C319.603,403.154,318.422,403.82,316.969,403.896z"/>
		<path fill-rule="evenodd" clip-rule="evenodd" fill="#F6FAFA" d="M351.498,393.771c-0.002-2.319-0.001-2.325,2.338-2.294
			c0.478,0.006,0.957,0.049,1.43,0.117c1.153,0.167,1.756,0.883,1.856,2.011c0.101,1.118-0.55,2.031-1.647,2.33
			c-1.096,0.298-2.222,0.185-3.338,0.176c-0.446-0.003-0.651-0.211-0.641-0.662C351.51,394.89,351.5,394.33,351.498,393.771z"/>
		<path fill-rule="evenodd" clip-rule="evenodd" fill="#F3F8F8" d="M341.53,392.955c0.77,1.612,1.409,2.937,2.034,4.267
			c0.209,0.442,0.07,0.663-0.445,0.657c-1.23-0.014-2.46-0.004-3.898-0.004C339.99,396.235,340.689,394.746,341.53,392.955z"/>
		<path fill-rule="evenodd" clip-rule="evenodd" fill="#F4F5F5" d="M304.369,393.747c0-2.276,0-2.284,2.244-2.269
			c0.555,0.004,1.117,0.03,1.663,0.124c1.133,0.194,1.736,0.904,1.8,2.05c0.064,1.165-0.53,2-1.661,2.303
			c-1.135,0.304-2.298,0.161-3.45,0.159c-0.474,0-0.609-0.267-0.599-0.693C304.38,394.863,304.37,394.305,304.369,393.747z"/>
		<path fill-rule="evenodd" clip-rule="evenodd" fill="#F3F8F8" d="M362.658,393.751c-0.001-2.282-0.001-2.292,2.249-2.277
			c0.596,0.004,1.202,0.032,1.784,0.147c1.02,0.202,1.584,0.886,1.692,1.908c0.114,1.076-0.323,1.902-1.331,2.305
			c-1.262,0.504-2.602,0.292-3.914,0.27c-0.43-0.008-0.487-0.324-0.482-0.676C362.664,394.869,362.658,394.31,362.658,393.751z"/>
	</g>
</g>
</svg>
