<?xml version="1.0" encoding="utf-8"?>
<!-- Generator: Adobe Illustrator 16.0.0, SVG Export Plug-In . SVG Version: 6.00 Build 0)  -->
<!DOCTYPE svg PUBLIC "-//W3C//DTD SVG 1.1//EN" "http://www.w3.org/Graphics/SVG/1.1/DTD/svg11.dtd">
<svg version="1.1" id="Layer_1" xmlns="http://www.w3.org/2000/svg" xmlns:xlink="http://www.w3.org/1999/xlink" x="0px" y="0px"
	 width="540px" height="640px" viewBox="0 0 540 640" enable-background="new 0 0 540 640" xml:space="preserve">
<path fill="#FFFFFF" stroke="#000000" stroke-miterlimit="10" d="M540.938,90.946c0,0-0.063,0-143.427-6.52
	c0-158.798-50.676-24.216-135.203,13.97c135.078-13.97-4.808,47.5-4.808,47.5v-45.637V62.073c111,0,89.335,189.067,110.881,0
	c21.547-189.067,132.013,370.684-21.296,189.067C258,145.896,540.938,90.946,540.938,90.946z M182.901,288.244
	c-9.126,2.966-19.739-0.07-26.868-4.275c-8.873-5.236-14.04-12.85-17.171-20.482c-6.664-16.23-4.784-33.213-4.279-49.856
	c0.454-14.952-1.512-29.852-2.956-44.765c-3.453-0.148-6.619-2.48-4.116-4.929c1.512-1.479,2.587-2.963,3.307-4.445
	c-0.171-2.332-0.318-4.664-0.422-6.998c-0.033-0.751,0.229-1.371,0.68-1.867c-4.526-11.708-26.379-22.454-38.234-28.72
	c-29.687-15.693-70.578-27.172-80.37-54.7c-0.725-2.039,1.547-4.471,4.838-4.315c5.958,0.283,11.355-1.184,16.622-2.959
	c0.813-0.273,1.609-0.386,2.363-0.378c-4.139-8.407-3.83-18.194-2.424-26.755c1.513-9.207,4.003-20.953,14.269-27.719
	c10.988-7.243,24.647-6.085,36.64-0.622c15.183,6.917,28.934,15.709,39.768,25.769c17.639,16.378,28.334,35.556,37.99,54.667
	c9.59,18.978,13.819,38.497,18.824,58.209c2.441,9.614,4.587,19.891,9.464,29.087c4.576,8.628,14.077,16.122,16.505,25.287
	c4.267,16.096-6.247,30.995-8.547,46.741c-1.232,8.436-0.597,16.959-2.106,25.38C195.405,276.686,193.321,284.855,182.901,288.244z
	 M185.736,273.568c2.399-8.468,1.789-17.154,2.615-25.724c0.744-7.743,3.376-15.203,5.882-22.745
	c2.59-7.797,5.333-15.997,3.865-24.043c-1.667-9.137-10.932-16.594-15.76-24.976c-5.235-9.088-7.584-19.311-10.055-28.907
	c-2.488-9.664-4.532-19.38-7.219-29.019c-5.563-19.955-14.925-39.593-27.127-58.099c-6.103-9.257-13.135-18.315-22.087-26.431
	c-8.213-7.445-18.018-13.718-28.644-19.49c-6.264-3.403-14.652-8.118-23.219-7.458c-8.854,0.681-13.636,7.244-15.992,12.416
	c-3.225,7.078-4.748,14.534-4.874,21.946c-0.104,6.138,0.063,13.071,3.993,18.727c2.177,3.134-2.747,5.931-6.298,5.011
	c-0.419,0.447-1.054,0.842-1.946,1.144c-4.755,1.603-9.727,3.039-14.924,3.621C30.59,82.133,45.891,91.396,61.595,99
	c14.704,7.119,30.069,13.49,44.188,21.175c16.876,9.186,41.965,24.611,35.135,40.571c1.368,17.3,4.219,34.58,3.694,51.91
	c-0.485,15.926-2.848,32.592,3.532,48.134c3.033,7.39,7.832,15.733,18.005,19.768c3.545,1.406,8.751,2.973,12.75,1.393
	C183.359,280.188,184.806,276.854,185.736,273.568z"/>
</svg>
