<?xml version="1.0" encoding="utf-8"?>
<!-- Generator: Adobe Illustrator 16.0.0, SVG Export Plug-In . SVG Version: 6.00 Build 0)  -->
<!DOCTYPE svg PUBLIC "-//W3C//DTD SVG 1.1//EN" "http://www.w3.org/Graphics/SVG/1.1/DTD/svg11.dtd">
<svg version="1.1" id="diagram" xmlns="http://www.w3.org/2000/svg" xmlns:xlink="http://www.w3.org/1999/xlink" x="0px" y="0px"
	 width="540px" height="640px" viewBox="0 0 540 640" enable-background="new 0 0 540 640" xml:space="preserve">
<g id="UserBrowser">
	
		<path fill="none" stroke="#FFFFFF" stroke-width="0.24" stroke-linecap="round" stroke-linejoin="round" stroke-miterlimit="1.4142" d="
		M17.125,210.727c0-0.347,0.185-0.667,0.485-0.841c6.224-3.593,70.394-40.642,80.915-46.717c0.3-0.173,0.67-0.173,0.971,0
		c0.3,0.173,0.485,0.494,0.485,0.841c0,9.467,0,55.906,0,61.542c0,0.347-0.185,0.667-0.485,0.84
		c-6.224,3.593-70.395,40.642-80.916,46.716c-0.3,0.174-0.67,0.174-0.97,0c-0.301-0.173-0.485-0.493-0.485-0.84
		C17.125,262.801,17.125,216.361,17.125,210.727z"/>
	
		<path fill="none" stroke="#FFFFFF" stroke-width="0.24" stroke-linecap="round" stroke-linejoin="round" stroke-miterlimit="1.4142" d="
		M15.744,209.929c0-0.347,0.185-0.667,0.485-0.841c6.223-3.593,70.394-40.642,80.915-46.716c0.301-0.173,0.67-0.173,0.971,0
		c0.3,0.173,0.485,0.494,0.485,0.84c0,9.467,0,55.907,0,61.542c0,0.347-0.185,0.667-0.485,0.84
		c-6.224,3.593-70.395,40.643-80.916,46.716c-0.301,0.174-0.67,0.174-0.971,0c-0.3-0.173-0.485-0.494-0.485-0.84
		C15.744,262.004,15.744,215.564,15.744,209.929z"/>
	
		<path fill="none" stroke="#FFFFFF" stroke-width="0.24" stroke-linecap="round" stroke-linejoin="round" stroke-miterlimit="1.4142" d="
		M19.886,218.139l77.333-44.648v51.026l-77.333,44.648V218.139z"/>
	
		<path fill="none" stroke="#FFFFFF" stroke-width="0.24" stroke-linecap="round" stroke-linejoin="round" stroke-miterlimit="1.4142" d="
		M26.792,222.125l77.333-44.648v51.026l-77.333,44.648V222.125z"/>
	
		<path fill="none" stroke="#FFFFFF" stroke-width="0.24" stroke-linecap="round" stroke-linejoin="round" stroke-miterlimit="1.4142" d="
		M19.886,211.956c0-0.121,0.065-0.232,0.169-0.293c0.407-0.235,1.453-0.839,2.085-1.204c0.104-0.061,0.234-0.061,0.339,0
		c0.104,0.061,0.169,0.172,0.169,0.293c0,0.73,0,1.937,0,2.407c0,0.121-0.064,0.233-0.169,0.293
		c-0.407,0.235-1.453,0.839-2.085,1.204c-0.105,0.061-0.234,0.061-0.339,0c-0.104-0.06-0.169-0.172-0.169-0.293
		C19.886,213.633,19.886,212.426,19.886,211.956z"/>
	
		<path fill="none" stroke="#FFFFFF" stroke-width="0.24" stroke-linecap="round" stroke-linejoin="round" stroke-miterlimit="1.4142" d="
		M24.029,209.564c0-0.122,0.065-0.233,0.169-0.294c0.407-0.235,1.453-0.838,2.085-1.203c0.104-0.061,0.233-0.061,0.338,0
		c0.104,0.06,0.169,0.172,0.169,0.293c0,0.73,0,1.938,0,2.407c0,0.121-0.065,0.232-0.169,0.293
		c-0.407,0.235-1.453,0.838-2.085,1.203c-0.104,0.061-0.233,0.061-0.338,0c-0.104-0.06-0.169-0.172-0.169-0.293
		C24.029,211.241,24.029,210.034,24.029,209.564L24.029,209.564z"/>
	
		<path fill="none" stroke="#FFFFFF" stroke-width="0.24" stroke-linecap="round" stroke-linejoin="round" stroke-miterlimit="1.4142" d="
		M28.172,207.172c0-0.121,0.065-0.232,0.169-0.293c0.406-0.235,1.453-0.839,2.084-1.204c0.105-0.061,0.234-0.061,0.339,0
		c0.105,0.061,0.169,0.172,0.169,0.293c0,0.73,0,1.937,0,2.407c0,0.121-0.064,0.232-0.169,0.293
		c-0.407,0.235-1.453,0.839-2.084,1.204c-0.104,0.061-0.234,0.061-0.338,0c-0.104-0.06-0.169-0.172-0.169-0.293
		C28.172,208.85,28.172,207.642,28.172,207.172z"/>
	
		<path fill="none" stroke="#FFFFFF" stroke-width="0.24" stroke-linecap="round" stroke-linejoin="round" stroke-miterlimit="1.4142" d="
		M33.696,203.994c0-0.127,0.068-0.245,0.178-0.309c0.743-0.429,3.609-2.084,4.811-2.778c0.11-0.063,0.246-0.063,0.356,0
		c0.11,0.064,0.178,0.182,0.178,0.309c0,0.727,0,1.896,0,2.366c0,0.127-0.068,0.245-0.178,0.309
		c-0.743,0.429-3.609,2.083-4.811,2.777c-0.11,0.063-0.246,0.063-0.356,0s-0.178-0.182-0.178-0.309
		C33.696,205.632,33.696,204.464,33.696,203.994z"/>
	
		<path fill="none" stroke="#FFFFFF" stroke-width="0.24" stroke-linecap="round" stroke-linejoin="round" stroke-miterlimit="1.4142" d="
		M40.601,200.007c0-0.128,0.068-0.245,0.178-0.309c0.743-0.429,3.609-2.084,4.811-2.778c0.11-0.063,0.247-0.063,0.357,0
		c0.11,0.064,0.178,0.182,0.178,0.309c0,0.728,0,1.896,0,2.366c0,0.127-0.068,0.245-0.178,0.309
		c-0.743,0.429-3.609,2.084-4.811,2.778c-0.11,0.063-0.247,0.063-0.357,0s-0.178-0.182-0.178-0.309
		C40.601,201.646,40.601,200.477,40.601,200.007z"/>
	
		<path fill="none" stroke="#FFFFFF" stroke-width="0.24" stroke-linecap="round" stroke-linejoin="round" stroke-miterlimit="1.4142" d="
		M53.029,192.872c0-0.152,0.082-0.293,0.214-0.37c2.458-1.419,25.382-14.655,29.527-17.047c0.132-0.076,0.295-0.076,0.427,0
		c0.132,0.076,0.213,0.217,0.213,0.37c0,0.708,0,1.736,0,2.203c0,0.152-0.082,0.293-0.213,0.369
		c-2.458,1.419-25.383,14.655-29.527,17.047c-0.132,0.076-0.295,0.076-0.427,0c-0.132-0.077-0.214-0.217-0.214-0.37
		C53.029,194.367,53.029,193.338,53.029,192.872z"/>
	<g id="User">
		
			<circle fill="none" stroke="#FFFFFF" stroke-width="0.24" stroke-linecap="round" stroke-linejoin="round" stroke-miterlimit="1.4142" cx="109.238" cy="216.839" r="4.204"/>
		
			<path fill="none" stroke="#FFFFFF" stroke-width="0.24" stroke-linecap="round" stroke-linejoin="round" stroke-miterlimit="1.4142" d="
			M112.261,219.759c0.793,0.493,1.318,1.166,1.538,1.886c0.004,0.013,2.962,9.175,4.193,12.991c0.244,0.431,0.45,6.961-8.736,6.951
			c-9.122-0.011-8.979-6.598-8.597-7.181c1.218-4.037,3.831-12.702,3.85-12.761c0.244-0.752,0.803-1.452,1.647-1.947
			c0.768,0.827,1.864,1.346,3.082,1.346C110.424,221.043,111.497,220.55,112.261,219.759z"/>
	</g>
</g>
<g id="Connections">
	
		<path fill="none" stroke="#FFFFFF" stroke-width="0.24" stroke-linecap="round" stroke-linejoin="round" stroke-miterlimit="1.4142" d="
		M76.505,244.449l90.95,52.59l0.192-1.563l-89.761-51.824L76.505,244.449L76.505,244.449z"/>
	
		<path fill="none" stroke="#FFFFFF" stroke-width="0.24" stroke-linecap="round" stroke-linejoin="round" stroke-miterlimit="1.4142" d="
		M210.457,226.112l89.76,53.417l1.381-0.797l-89.761-53.418L210.457,226.112z"/>
	<g>
		
			<path fill="none" stroke="#FFFFFF" stroke-width="0.24" stroke-linecap="round" stroke-linejoin="round" stroke-miterlimit="1.4142" d="
			M191.123,280.327l19.333-54.215l1.38-0.798l-19.905,56.141L191.123,280.327L191.123,280.327z"/>
		
			<path fill="none" stroke="#FFFFFF" stroke-width="0.24" stroke-linecap="round" stroke-linejoin="round" stroke-miterlimit="1.4142" d="
			M210.457,385.568l91.141,54.216l1.381-0.798l-91.142-54.215L210.457,385.568z"/>
		
			<path fill="none" stroke="#FFFFFF" stroke-width="0.24" stroke-linecap="round" stroke-linejoin="round" stroke-miterlimit="1.4142" d="
			M191.123,330.053l1.381-0.797l19.333,55.516l-1.38,0.797L191.123,330.053L191.123,330.053z"/>
		
			<path fill="none" stroke="#FFFFFF" stroke-width="0.24" stroke-linecap="round" stroke-linejoin="round" stroke-miterlimit="1.4142" d="
			M340.264,278.732l1.382,0.797l89.761-51.823v-1.594L340.264,278.732z"/>
		
			<path fill="none" stroke="#FFFFFF" stroke-width="0.24" stroke-linecap="round" stroke-linejoin="round" stroke-miterlimit="1.4142" d="
			M338.884,438.986l1.38,0.798l91.143-52.621v-1.595L338.884,438.986z"/>
		
			<path fill="none" stroke="#FFFFFF" stroke-width="0.12" stroke-linecap="round" stroke-linejoin="round" stroke-miterlimit="1.4142" d="
			M503.215,344.109v-25.03l1.381-0.002v25.829L503.215,344.109z"/>
		<g>
			
				<path fill="none" stroke="#FFFFFF" stroke-width="0.24" stroke-linecap="round" stroke-linejoin="round" stroke-miterlimit="1.4142" d="
				M461.786,368.028v1.595l42.81-24.717l-1.381-0.797L461.786,368.028L461.786,368.028z"/>
			
				<path fill="none" stroke="#FFFFFF" stroke-width="0.12" stroke-linecap="round" stroke-linejoin="round" stroke-miterlimit="1.4142" d="
				M503.215,269.945v-18.32l1.381-0.797v19.134L503.215,269.945z"/>
			
				<path fill="none" stroke="#FFFFFF" stroke-width="0.24" stroke-linecap="round" stroke-linejoin="round" stroke-miterlimit="1.4142" d="
				M461.786,226.112l41.429,25.513l1.381-0.797l-42.809-26.311L461.786,226.112L461.786,226.112z"/>
		</g>
	</g>
</g>
<g id="Container-1">
	
		<path fill="none" stroke="#FFFFFF" stroke-width="0.24" stroke-linecap="round" stroke-linejoin="round" stroke-miterlimit="1.4142" d="
		M284.562,299.62v-11.051l36.37-20.998l36.369,20.998v11.051l-36.369,20.999L284.562,299.62L284.562,299.62z"/>
	
		<path fill="none" stroke="#FFFFFF" stroke-width="0.12" stroke-linecap="round" stroke-linejoin="round" stroke-miterlimit="1.4142" d="
		M284.562,288.568l36.37,20.998l36.369-20.998"/>
	
		<path fill="none" stroke="#FFFFFF" stroke-width="0.12" stroke-linecap="round" stroke-linejoin="round" stroke-miterlimit="1.4142" d="
		M320.932,309.566v11.052"/>
</g>
<g id="Container-2">
	
		<path fill="none" stroke="#FFFFFF" stroke-width="0.24" stroke-linecap="round" stroke-linejoin="round" stroke-miterlimit="1.4142" d="
		M284.562,460.671V449.62l36.37-20.998l36.369,20.998v11.051l-36.369,20.999L284.562,460.671L284.562,460.671z"/>
	
		<path fill="none" stroke="#FFFFFF" stroke-width="0.12" stroke-linecap="round" stroke-linejoin="round" stroke-miterlimit="1.4142" d="
		M284.562,449.62l36.37,20.997l36.369-20.997"/>
	
		<path fill="none" stroke="#FFFFFF" stroke-width="0.12" stroke-linecap="round" stroke-linejoin="round" stroke-miterlimit="1.4142" d="
		M320.932,470.617v11.053"/>
</g>
<g id="LoadBalancer">
	
		<path fill="none" stroke="#FFFFFF" stroke-width="0.24" stroke-linecap="round" stroke-linejoin="round" stroke-miterlimit="1.4142" d="
		M189.857,279.25c-5.224-4.416-11.041-3.82-15.261,1.563c-0.007,0.01-0.015,0.02-0.023,0.03c-4.22,5.382-6.201,14.735-5.198,24.534
		c0.002,0.019,0.004,0.037,0.006,0.055c1.003,9.799,4.839,18.556,10.063,22.972c0.01,0.008,0.02,0.017,0.029,0.025
		c5.223,4.416,11.041,3.82,15.261-1.563c0.008-0.011,0.016-0.021,0.023-0.031c4.22-5.383,6.202-14.735,5.198-24.534
		c-0.001-0.018-0.003-0.037-0.005-0.055c-1.003-9.799-4.839-18.556-10.063-22.971C189.876,279.267,189.867,279.259,189.857,279.25
		L189.857,279.25z"/>
	
		<path fill="none" stroke="#FFFFFF" stroke-width="0.24" stroke-linecap="round" stroke-linejoin="round" stroke-miterlimit="1.4142" d="
		M188.035,279.437c-5.224-4.416-11.041-3.82-15.261,1.563c-0.008,0.01-0.016,0.02-0.024,0.03c-4.22,5.383-6.201,14.735-5.198,24.534
		c0.001,0.019,0.003,0.037,0.005,0.055c1.003,9.799,4.84,18.555,10.063,22.972c0.01,0.008,0.02,0.016,0.03,0.023
		c5.224,4.416,11.041,3.82,15.26-1.563c0.008-0.01,0.016-0.02,0.024-0.03c4.22-5.383,6.202-14.735,5.198-24.534
		c-0.001-0.018-0.003-0.036-0.005-0.055c-1.004-9.799-4.84-18.555-10.063-22.971C188.054,279.454,188.044,279.445,188.035,279.437z"
		/>
</g>
<g id="HTML-1">
	
		<path fill="none" stroke="#FFFFFF" stroke-width="0.24" stroke-linecap="round" stroke-linejoin="round" stroke-miterlimit="1.4142" d="
		M432.956,186.148v45.449l28.83,16.041v-44.647L432.956,186.148z"/>
	
		<path fill="none" stroke="#FFFFFF" stroke-width="0.24" stroke-linecap="round" stroke-linejoin="round" stroke-miterlimit="1.4142" d="
		M431.406,187.044v45.445l29,15.945v-44.647L431.406,187.044z"/>
	
		<path fill="none" stroke="#FFFFFF" stroke-width="0.24" stroke-linecap="round" stroke-linejoin="round" stroke-miterlimit="1.4142" d="
		M423.121,184.653v7.973l13.809,7.973v-7.973L423.121,184.653z"/>
	
		<path fill="none" stroke="#FFFFFF" stroke-width="0.24" stroke-linecap="round" stroke-linejoin="round" stroke-miterlimit="1.4142" d="
		M439.692,195.018v3.188l17.952,10.365v-3.189L439.692,195.018z"/>
	
		<path fill="none" stroke="#FFFFFF" stroke-width="0.24" stroke-linecap="round" stroke-linejoin="round" stroke-miterlimit="1.4142" d="
		M427.263,203.788v7.973l13.811,7.973v-7.973L427.263,203.788z"/>
	
		<path fill="none" stroke="#FFFFFF" stroke-width="0.24" stroke-linecap="round" stroke-linejoin="round" stroke-miterlimit="1.4142" d="
		M443.834,206.977v38.27l11.048,6.378v-38.27L443.834,206.977L443.834,206.977z"/>
</g>
<g id="HTML-2">
	
		<path fill="none" stroke="#FFFFFF" stroke-width="0.24" stroke-linecap="round" stroke-linejoin="round" stroke-miterlimit="1.4142" d="
		M432.956,345.219v45.449l28.83,16.427v-44.647L432.956,345.219L432.956,345.219z"/>
	
		<path fill="none" stroke="#FFFFFF" stroke-width="0.24" stroke-linecap="round" stroke-linejoin="round" stroke-miterlimit="1.4142" d="
		M431.406,346.113v45.449l29,16.33v-44.648L431.406,346.113L431.406,346.113z"/>
	
		<path fill="none" stroke="#FFFFFF" stroke-width="0.24" stroke-linecap="round" stroke-linejoin="round" stroke-miterlimit="1.4142" d="
		M423.121,344.109v7.973l13.809,7.974v-7.974L423.121,344.109z"/>
	
		<path fill="none" stroke="#FFFFFF" stroke-width="0.24" stroke-linecap="round" stroke-linejoin="round" stroke-miterlimit="1.4142" d="
		M439.692,354.475v3.189l17.952,10.364v-3.188L439.692,354.475L439.692,354.475z"/>
	
		<path fill="none" stroke="#FFFFFF" stroke-width="0.24" stroke-linecap="round" stroke-linejoin="round" stroke-miterlimit="1.4142" d="
		M427.263,363.244v7.973l13.811,7.974v-7.974L427.263,363.244z"/>
	
		<path fill="none" stroke="#FFFFFF" stroke-width="0.24" stroke-linecap="round" stroke-linejoin="round" stroke-miterlimit="1.4142" d="
		M443.834,366.434v38.271l11.048,6.378v-38.27L443.834,366.434z"/>
</g>
<g id="S3Bucket">
	
		<path fill="none" stroke="#FFFFFF" stroke-width="0.24" stroke-linecap="round" stroke-linejoin="round" stroke-miterlimit="1.4142" d="
		M517.513,312.088c-0.019,0.086-0.106,0.977-0.255,1.383c-1.18,3.216-6.815,5.657-13.583,5.657c-7.621,0-13.809-3.096-13.809-6.91
		c0,0-6.905-31.623-6.905-31.892c0-5.72,9.282-10.365,20.714-10.365c11.433,0,20.715,4.645,20.715,10.365
		C524.39,280.585,517.993,309.888,517.513,312.088L517.513,312.088z"/>
	
		<path fill="none" stroke="#FFFFFF" stroke-width="0.12" stroke-linecap="round" stroke-linejoin="round" stroke-miterlimit="1.4142" d="
		M503.675,270.759c10.671,0,19.334,4.287,19.334,9.567c0,5.236-8.519,9.496-19.066,9.567c-0.089,0-0.178,0-0.268,0
		c-10.67,0-19.333-4.287-19.333-9.567C484.342,275.046,493.005,270.759,503.675,270.759L503.675,270.759z"/>
</g>
</svg>
